# Blender v2.83.3 OBJ File: ''
# www.blender.org
mtllib safetyRope.mtl
o securityRope
v -2.876184 5.768222 -0.351872
v -2.718181 5.768222 -0.134398
v -2.739681 5.604771 -0.127414
v -2.889472 5.604771 -0.333583
v -3.131839 5.768222 -0.434939
v -3.131839 5.604771 -0.412333
v -3.387493 5.768222 -0.351871
v -3.374206 5.604771 -0.333583
v -3.545496 5.768222 -0.134398
v -3.523997 5.604771 -0.127414
v -3.545496 5.768222 0.134413
v -3.523997 5.604771 0.127425
v -3.387493 5.768222 0.351885
v -3.374206 5.604771 0.333595
v -3.131839 5.768222 0.434952
v -3.131839 5.604771 0.412345
v -2.876184 5.768222 0.351885
v -2.889472 5.604771 0.333595
v -2.718181 5.768222 0.134413
v -2.739681 5.604771 0.127425
v -2.897285 5.523930 -0.076206
v -2.897285 0.333871 -0.076207
v -2.986876 0.333871 -0.199518
v -2.986876 5.523930 -0.199517
v -3.131839 0.333871 -0.246619
v -3.131839 5.523930 -0.246618
v -3.276801 0.333871 -0.199518
v -3.276801 5.523930 -0.199517
v -3.366392 0.333871 -0.076206
v -3.366392 5.523930 -0.076205
v -3.366392 0.333871 0.076216
v -3.366392 5.523930 0.076217
v -3.276801 0.333871 0.199528
v -3.276801 5.523930 0.199529
v -3.131839 0.333871 0.246629
v -3.131839 5.523930 0.246630
v -2.986877 0.333871 0.199528
v -2.986877 5.523930 0.199529
v -2.897285 0.333871 0.076216
v -2.897285 5.523930 0.076217
v -2.747622 5.939363 -0.124834
v -2.894380 5.939363 -0.326828
v -3.131839 5.939363 -0.403983
v -3.369297 5.939363 -0.326828
v -3.516055 5.939363 -0.124834
v -3.516055 5.939363 0.124845
v -3.369298 5.939363 0.326839
v -3.131839 5.939363 0.403995
v -2.894380 5.939363 0.326839
v -2.747622 5.939363 0.124845
v -2.995693 6.235560 -0.187382
v -2.911550 6.235560 -0.071569
v -3.131839 6.235560 -0.231618
v -3.267985 6.235560 -0.187382
v -3.352128 6.235560 -0.071569
v -3.352127 6.235560 0.071583
v -3.267985 6.235560 0.187396
v -3.131839 6.235560 0.231633
v -2.995692 6.235560 0.187396
v -2.911550 6.235560 0.071583
v -2.609717 0.333871 -0.718634
v -2.287028 0.333871 -0.274490
v -3.131839 0.333871 -0.888281
v -3.653960 0.333871 -0.718634
v -3.976649 0.333871 -0.274490
v -3.976649 0.333871 0.274500
v -3.653961 0.333871 0.718643
v -3.131839 0.333871 0.888291
v -2.609717 0.333871 0.718643
v -2.287029 0.333871 0.274500
v -2.287028 0.130789 -0.274490
v -2.609717 0.130789 -0.718634
v -3.131839 0.130789 -0.888281
v -3.653960 0.130789 -0.718634
v -3.976649 0.130789 -0.274490
v -3.976649 0.130789 0.274500
v -3.653961 0.130789 0.718643
v -3.131839 0.130789 0.888291
v -2.609717 0.130789 0.718643
v -2.287029 0.130789 0.274500
v -4.090747 5.928574 0.006189
v 4.090747 5.928574 0.006189
v 4.090747 5.615962 0.006189
v -4.090747 5.615962 0.006189
v -4.090747 5.928574 0.045105
v -4.090747 5.615962 0.045105
v 4.090747 5.615962 0.045105
v 4.090747 5.928574 0.045105
v 3.341125 5.768222 -0.351872
v 3.499128 5.768222 -0.134398
v 3.477628 5.604771 -0.127414
v 3.327837 5.604771 -0.333583
v 3.085470 5.768222 -0.434939
v 3.085470 5.604771 -0.412333
v 2.829816 5.768222 -0.351871
v 2.843103 5.604771 -0.333583
v 2.671813 5.768222 -0.134398
v 2.693312 5.604771 -0.127414
v 2.671813 5.768222 0.134413
v 2.693312 5.604771 0.127425
v 2.829816 5.768222 0.351885
v 2.843103 5.604771 0.333595
v 3.085470 5.768222 0.434952
v 3.085470 5.604771 0.412345
v 3.341125 5.768222 0.351885
v 3.327837 5.604771 0.333595
v 3.499128 5.768222 0.134413
v 3.477628 5.604771 0.127425
v 3.320024 5.523930 -0.076206
v 3.320024 0.333871 -0.076207
v 3.230433 0.333871 -0.199518
v 3.230433 5.523930 -0.199517
v 3.085470 0.333871 -0.246619
v 3.085470 5.523930 -0.246618
v 2.940508 0.333871 -0.199518
v 2.940508 5.523930 -0.199517
v 2.850917 0.333871 -0.076206
v 2.850917 5.523930 -0.076205
v 2.850917 0.333871 0.076216
v 2.850917 5.523930 0.076217
v 2.940508 0.333871 0.199528
v 2.940508 5.523930 0.199529
v 3.085470 0.333871 0.246629
v 3.085470 5.523930 0.246630
v 3.230432 0.333871 0.199528
v 3.230432 5.523930 0.199529
v 3.320024 0.333871 0.076216
v 3.320024 5.523930 0.076217
v 3.469687 5.939363 -0.124834
v 3.322929 5.939363 -0.326828
v 3.085470 5.939363 -0.403983
v 2.848012 5.939363 -0.326828
v 2.701254 5.939363 -0.124834
v 2.701254 5.939363 0.124845
v 2.848011 5.939363 0.326839
v 3.085470 5.939363 0.403995
v 3.322929 5.939363 0.326839
v 3.469687 5.939363 0.124845
v 3.221616 6.235560 -0.187382
v 3.305759 6.235560 -0.071569
v 3.085470 6.235560 -0.231618
v 2.949324 6.235560 -0.187382
v 2.865181 6.235560 -0.071569
v 2.865182 6.235560 0.071583
v 2.949324 6.235560 0.187396
v 3.085470 6.235560 0.231633
v 3.221617 6.235560 0.187396
v 3.305759 6.235560 0.071583
v 3.607592 0.333871 -0.718634
v 3.930281 0.333871 -0.274490
v 3.085470 0.333871 -0.888281
v 2.563349 0.333871 -0.718634
v 2.240660 0.333871 -0.274490
v 2.240660 0.333871 0.274500
v 2.563348 0.333871 0.718643
v 3.085470 0.333871 0.888291
v 3.607592 0.333871 0.718643
v 3.930280 0.333871 0.274500
v 3.930281 0.130789 -0.274490
v 3.607592 0.130789 -0.718634
v 3.085470 0.130789 -0.888281
v 2.563349 0.130789 -0.718634
v 2.240660 0.130789 -0.274490
v 2.240660 0.130789 0.274500
v 2.563348 0.130789 0.718643
v 3.085470 0.130789 0.888291
v 3.607592 0.130789 0.718643
v 3.930280 0.130789 0.274500
vt 0.000000 1.000000
vt 0.000000 1.000000
vt 0.000000 1.000000
vt 0.000000 1.000000
vt 0.000000 1.000000
vt 0.000000 1.000000
vt 0.000000 1.000000
vt 0.000000 1.000000
vt 0.000000 1.000000
vt 0.000000 1.000000
vt 0.591841 0.970159
vt 0.500000 1.000000
vt 0.408159 0.970159
vt 0.351397 0.892034
vt 0.351397 0.795466
vt 0.408159 0.717341
vt 0.500000 0.687500
vt 0.591842 0.717341
vt 0.648603 0.795466
vt 0.648603 0.892034
vt 0.000000 0.000000
vt 1.000000 0.000000
vt 1.000000 1.000000
vt 0.000000 1.000000
vt 0.000000 0.000000
vt 0.000000 1.000000
vt 1.000000 1.000000
vt 1.000000 0.000000
vt 0.000000 1.000000
vt 0.000000 1.000000
vt 0.000000 1.000000
vt 0.000000 1.000000
vt 0.000000 1.000000
vt 0.000000 1.000000
vt 0.000000 1.000000
vt 0.000000 1.000000
vt 0.000000 1.000000
vt 0.000000 1.000000
vt 0.591841 0.970159
vt 0.500000 1.000000
vt 0.408159 0.970159
vt 0.351397 0.892034
vt 0.351397 0.795466
vt 0.408159 0.717341
vt 0.500000 0.687500
vt 0.591842 0.717341
vt 0.648603 0.795466
vt 0.648603 0.892034
vt 0.591841 0.970159
vt 0.648603 0.892034
vt 0.648603 0.892034
vt 0.591841 0.970159
vt 0.500000 1.000000
vt 0.500000 1.000000
vt 0.408159 0.970159
vt 0.408159 0.970159
vt 0.351397 0.892034
vt 0.351397 0.892034
vt 0.351397 0.795466
vt 0.351397 0.795466
vt 0.408159 0.717341
vt 0.408159 0.717341
vt 0.500000 0.687500
vt 0.500000 0.687500
vt 0.591842 0.717341
vt 0.591842 0.717341
vt 0.648603 0.795466
vt 0.648603 0.795466
vt 0.648603 0.892034
vt 0.648603 0.892034
vt 0.591841 0.970159
vt 0.591841 0.970159
vt 0.500000 1.000000
vt 0.500000 1.000000
vt 0.408159 0.970159
vt 0.408159 0.970159
vt 0.351397 0.892034
vt 0.351397 0.892034
vt 0.351397 0.795466
vt 0.351397 0.795466
vt 0.408159 0.717341
vt 0.408159 0.717341
vt 0.500000 0.687500
vt 0.500000 0.687500
vt 0.591842 0.717341
vt 0.591842 0.717341
vt 0.648603 0.795466
vt 0.648603 0.795466
vt 0.648603 0.892034
vt 0.591841 0.970159
vt 0.500000 1.000000
vt 0.408159 0.970159
vt 0.351397 0.892034
vt 0.351397 0.795466
vt 0.408159 0.717341
vt 0.500000 0.687500
vt 0.591842 0.717341
vt 0.648603 0.795466
vt 0.000000 1.000000
vt 0.000000 0.000000
vt 1.000000 0.000000
vt 1.000000 1.000000
vt 0.000000 1.000000
vt 0.000000 0.000000
vt 1.000000 0.000000
vt 1.000000 1.000000
vt 0.000000 1.000000
vt 0.000000 0.000000
vt 1.000000 0.000000
vt 1.000000 1.000000
vt 0.000000 1.000000
vt 0.000000 0.000000
vt 1.000000 0.000000
vt 1.000000 1.000000
vt 0.000000 1.000000
vt 0.000000 0.000000
vt 1.000000 0.000000
vt 1.000000 1.000000
vt 0.000000 1.000000
vt 0.000000 0.000000
vt 1.000000 0.000000
vt 1.000000 1.000000
vt 0.000000 1.000000
vt 0.000000 0.000000
vt 1.000000 0.000000
vt 1.000000 1.000000
vt 0.000000 1.000000
vt 0.000000 0.000000
vt 1.000000 0.000000
vt 1.000000 1.000000
vt 0.000000 1.000000
vt 0.000000 0.000000
vt 1.000000 0.000000
vt 1.000000 1.000000
vt 0.000000 1.000000
vt 0.000000 0.000000
vt 1.000000 0.000000
vt 1.000000 1.000000
vt 1.000000 1.000000
vt 0.000000 0.000000
vt 1.000000 0.000000
vt 1.000000 1.000000
vt 0.000000 0.000000
vt 1.000000 0.000000
vt 1.000000 1.000000
vt 0.000000 0.000000
vt 1.000000 0.000000
vt 1.000000 1.000000
vt 0.000000 0.000000
vt 1.000000 0.000000
vt 1.000000 1.000000
vt 0.000000 0.000000
vt 1.000000 0.000000
vt 1.000000 1.000000
vt 0.000000 0.000000
vt 1.000000 0.000000
vt 1.000000 1.000000
vt 0.000000 0.000000
vt 1.000000 0.000000
vt 1.000000 1.000000
vt 0.000000 0.000000
vt 1.000000 0.000000
vt 1.000000 1.000000
vt 0.000000 0.000000
vt 1.000000 0.000000
vt 1.000000 1.000000
vt 0.000000 0.000000
vt 1.000000 0.000000
vt 0.591841 0.970159
vt 0.648603 0.892034
vt 0.648603 0.892034
vt 0.591841 0.970159
vt 0.500000 1.000000
vt 0.500000 1.000000
vt 0.408159 0.970159
vt 0.408159 0.970159
vt 0.351397 0.892034
vt 0.351397 0.892034
vt 0.351397 0.795466
vt 0.351397 0.795466
vt 0.408159 0.717341
vt 0.408159 0.717341
vt 0.500000 0.687500
vt 0.500000 0.687500
vt 0.591842 0.717341
vt 0.591842 0.717341
vt 0.648603 0.795466
vt 0.648603 0.795466
vt 0.648603 0.892034
vt 0.648603 0.892034
vt 0.591841 0.970159
vt 0.591841 0.970159
vt 0.500000 1.000000
vt 0.500000 1.000000
vt 0.408159 0.970159
vt 0.408159 0.970159
vt 0.351397 0.892034
vt 0.351397 0.892034
vt 0.351397 0.795466
vt 0.351397 0.795466
vt 0.408159 0.717341
vt 0.408159 0.717341
vt 0.500000 0.687500
vt 0.500000 0.687500
vt 0.591842 0.717341
vt 0.591842 0.717341
vt 0.648603 0.795466
vt 0.648603 0.795466
vt 0.648603 0.892034
vt 0.591841 0.970159
vt 0.500000 1.000000
vt 0.408159 0.970159
vt 0.351397 0.892034
vt 0.351397 0.795466
vt 0.408159 0.717341
vt 0.500000 0.687500
vt 0.591842 0.717341
vt 0.648603 0.795466
vt 0.000000 1.000000
vt 0.000000 0.000000
vt 1.000000 0.000000
vt 1.000000 1.000000
vt 0.000000 1.000000
vt 0.000000 0.000000
vt 1.000000 0.000000
vt 1.000000 1.000000
vt 0.000000 1.000000
vt 0.000000 0.000000
vt 1.000000 0.000000
vt 1.000000 1.000000
vt 0.000000 1.000000
vt 0.000000 0.000000
vt 1.000000 0.000000
vt 1.000000 1.000000
vt 0.000000 1.000000
vt 0.000000 0.000000
vt 1.000000 0.000000
vt 1.000000 1.000000
vt 0.000000 1.000000
vt 0.000000 0.000000
vt 1.000000 0.000000
vt 1.000000 1.000000
vt 0.000000 1.000000
vt 0.000000 0.000000
vt 1.000000 0.000000
vt 1.000000 1.000000
vt 0.000000 1.000000
vt 0.000000 0.000000
vt 1.000000 0.000000
vt 1.000000 1.000000
vt 0.000000 1.000000
vt 0.000000 0.000000
vt 1.000000 0.000000
vt 1.000000 1.000000
vt 0.000000 1.000000
vt 0.000000 0.000000
vt 1.000000 0.000000
vt 1.000000 1.000000
vt 1.000000 1.000000
vt 0.000000 0.000000
vt 1.000000 0.000000
vt 1.000000 1.000000
vt 0.000000 0.000000
vt 1.000000 0.000000
vt 1.000000 1.000000
vt 0.000000 0.000000
vt 1.000000 0.000000
vt 1.000000 1.000000
vt 0.000000 0.000000
vt 1.000000 0.000000
vt 1.000000 1.000000
vt 0.000000 0.000000
vt 1.000000 0.000000
vt 1.000000 1.000000
vt 0.000000 0.000000
vt 1.000000 0.000000
vt 1.000000 1.000000
vt 0.000000 0.000000
vt 1.000000 0.000000
vt 1.000000 1.000000
vt 0.000000 0.000000
vt 1.000000 0.000000
vt 1.000000 1.000000
vt 0.000000 0.000000
vt 1.000000 0.000000
vt 1.000000 1.000000
vt 0.000000 0.000000
vt 1.000000 0.000000
vn 0.0000 -1.0000 -0.0000
vn 0.0000 1.0000 0.0000
vn 0.0000 0.0000 -1.0000
vn 0.0000 -0.0000 1.0000
vn 1.0000 0.0000 0.0000
vn -1.0000 0.0000 0.0000
vn 0.5822 -0.1370 -0.8014
vn 0.9421 -0.1370 -0.3061
vn -0.0000 -0.1370 -0.9906
vn -0.5822 -0.1370 -0.8014
vn -0.9421 -0.1370 -0.3061
vn -0.9421 -0.1370 0.3061
vn -0.5822 -0.1370 0.8014
vn -0.0000 -0.1370 0.9906
vn 0.5822 -0.1370 0.8014
vn 0.9421 -0.1370 0.3061
vn 0.9511 0.0000 -0.3090
vn 0.5878 0.0000 -0.8090
vn -0.5878 0.0000 -0.8090
vn -0.9511 0.0000 -0.3090
vn -0.9511 -0.0000 0.3090
vn -0.5878 -0.0000 0.8090
vn 0.5878 -0.0000 0.8090
vn 0.9511 -0.0000 0.3090
vn 0.9359 0.1780 -0.3041
vn 0.5784 0.1780 -0.7961
vn -0.0000 0.1780 -0.9840
vn -0.5784 0.1780 -0.7961
vn -0.9359 0.1780 -0.3041
vn -0.9359 0.1780 0.3041
vn -0.5784 0.1780 0.7961
vn -0.0000 0.1780 0.9840
vn 0.5784 0.1780 0.7961
vn 0.9359 0.1780 0.3041
vn 0.8220 0.5030 -0.2671
vn 0.5080 0.5030 -0.6992
vn -0.0000 0.5030 -0.8643
vn -0.5080 0.5030 -0.6992
vn -0.8220 0.5030 -0.2671
vn -0.8220 0.5030 0.2671
vn -0.5080 0.5030 0.6992
vn -0.0000 0.5030 0.8643
vn 0.5080 0.5030 0.6992
vn 0.8220 0.5030 0.2671
vn 0.4170 -0.8988 0.1355
vn 0.4170 -0.8988 -0.1355
vn 0.2577 -0.8988 -0.3547
vn -0.0000 -0.8988 -0.4384
vn -0.2577 -0.8988 -0.3547
vn -0.4170 -0.8988 -0.1355
vn -0.4170 -0.8988 0.1355
vn -0.2577 -0.8988 0.3547
vn 0.0000 -0.8988 0.4384
vn 0.2577 -0.8988 0.3547
usemtl initialShadingGroup.002
s off
f 71/1/1 80/2/1 79/3/1 78/4/1 77/5/1 76/6/1 75/7/1 74/8/1 73/9/1 72/10/1
f 51/11/2 53/12/2 54/13/2 55/14/2 56/15/2 57/16/2 58/17/2 59/18/2 60/19/2 52/20/2
f 81/21/3 82/22/3 83/23/3 84/24/3
f 85/25/4 86/26/4 87/27/4 88/28/4
f 85/25/2 88/28/2 82/22/2 81/21/2
f 88/28/5 87/27/5 83/23/5 82/22/5
f 87/27/1 86/26/1 84/24/1 83/23/1
f 86/26/6 85/25/6 81/21/6 84/24/6
f 159/29/1 168/30/1 167/31/1 166/32/1 165/33/1 164/34/1 163/35/1 162/36/1 161/37/1 160/38/1
f 139/39/2 141/40/2 142/41/2 143/42/2 144/43/2 145/44/2 146/45/2 147/46/2 148/47/2 140/48/2
s 1
f 1/49/7 2/50/8 3/51/8 4/52/7
f 5/53/9 1/49/7 4/52/7 6/54/9
f 7/55/10 5/53/9 6/54/9 8/56/10
f 9/57/11 7/55/10 8/56/10 10/58/11
f 11/59/12 9/57/11 10/58/11 12/60/12
f 13/61/13 11/59/12 12/60/12 14/62/13
f 15/63/14 13/61/13 14/62/13 16/64/14
f 17/65/15 15/63/14 16/64/14 18/66/15
f 19/67/16 17/65/15 18/66/15 20/68/16
f 2/50/8 19/67/16 20/68/16 3/51/8
f 21/69/17 22/70/17 23/71/18 24/72/18
f 24/72/18 23/71/18 25/73/3 26/74/3
f 26/74/3 25/73/3 27/75/19 28/76/19
f 28/76/19 27/75/19 29/77/20 30/78/20
f 30/78/20 29/77/20 31/79/21 32/80/21
f 32/80/21 31/79/21 33/81/22 34/82/22
f 34/82/22 33/81/22 35/83/4 36/84/4
f 36/84/4 35/83/4 37/85/23 38/86/23
f 38/86/23 37/85/23 39/87/24 40/88/24
f 40/88/24 39/87/24 22/70/17 21/69/17
f 41/89/25 2/50/25 1/49/26 42/90/26
f 42/90/26 1/49/26 5/53/27 43/91/27
f 43/91/27 5/53/27 7/55/28 44/92/28
f 44/92/28 7/55/28 9/57/29 45/93/29
f 45/93/29 9/57/29 11/59/30 46/94/30
f 46/94/30 11/59/30 13/61/31 47/95/31
f 47/95/31 13/61/31 15/63/32 48/96/32
f 48/96/32 15/63/32 17/65/33 49/97/33
f 49/97/33 17/65/33 19/67/34 50/98/34
f 50/98/34 19/67/34 2/50/25 41/89/25
f 41/89/35 42/90/36 51/11/36 52/20/35
f 53/12/37 51/11/36 42/90/36 43/91/37
f 54/13/38 53/12/37 43/91/37 44/92/38
f 55/14/39 54/13/38 44/92/38 45/93/39
f 56/15/40 55/14/39 45/93/39 46/94/40
f 57/16/41 56/15/40 46/94/40 47/95/41
f 58/17/42 57/16/41 47/95/41 48/96/42
f 59/18/43 58/17/42 48/96/42 49/97/43
f 60/19/44 59/18/43 49/97/43 50/98/44
f 52/20/35 60/19/44 50/98/44 41/89/35
f 40/88/45 21/69/46 3/51/46 20/68/45
f 21/69/46 24/72/47 4/52/47 3/51/46
f 24/72/47 26/74/48 6/54/48 4/52/47
f 26/74/48 28/76/49 8/56/49 6/54/48
f 28/76/49 30/78/50 10/58/50 8/56/49
f 30/78/50 32/80/51 12/60/51 10/58/50
f 32/80/51 34/82/52 14/62/52 12/60/51
f 34/82/52 36/84/53 16/64/53 14/62/52
f 36/84/53 38/86/54 18/66/54 16/64/53
f 38/86/54 40/88/45 20/68/45 18/66/54
f 61/99/2 23/100/2 22/101/2 62/102/2
f 63/103/2 25/104/2 23/105/2 61/106/2
f 64/107/2 27/108/2 25/109/2 63/110/2
f 65/111/2 29/112/2 27/113/2 64/114/2
f 66/115/2 31/116/2 29/117/2 65/118/2
f 67/119/2 33/120/2 31/121/2 66/122/2
f 68/123/2 35/124/2 33/125/2 67/126/2
f 69/127/2 37/128/2 35/129/2 68/130/2
f 70/131/2 39/132/2 37/133/2 69/134/2
f 62/135/2 22/136/2 39/137/2 70/138/2
f 71/139/17 72/10/18 61/140/18 62/141/17
f 72/142/18 73/9/3 63/143/3 61/144/18
f 73/145/3 74/8/19 64/146/19 63/147/3
f 74/148/19 75/7/20 65/149/20 64/150/19
f 75/151/20 76/6/21 66/152/21 65/153/20
f 76/154/21 77/5/22 67/155/22 66/156/21
f 77/157/22 78/4/4 68/158/4 67/159/22
f 78/160/4 79/3/23 69/161/23 68/162/4
f 79/163/23 80/2/24 70/164/24 69/165/23
f 80/166/24 71/1/17 62/167/17 70/168/24
f 89/169/7 90/170/8 91/171/8 92/172/7
f 93/173/9 89/169/7 92/172/7 94/174/9
f 95/175/10 93/173/9 94/174/9 96/176/10
f 97/177/11 95/175/10 96/176/10 98/178/11
f 99/179/12 97/177/11 98/178/11 100/180/12
f 101/181/13 99/179/12 100/180/12 102/182/13
f 103/183/14 101/181/13 102/182/13 104/184/14
f 105/185/15 103/183/14 104/184/14 106/186/15
f 107/187/16 105/185/15 106/186/15 108/188/16
f 90/170/8 107/187/16 108/188/16 91/171/8
f 109/189/17 110/190/17 111/191/18 112/192/18
f 112/192/18 111/191/18 113/193/3 114/194/3
f 114/194/3 113/193/3 115/195/19 116/196/19
f 116/196/19 115/195/19 117/197/20 118/198/20
f 118/198/20 117/197/20 119/199/21 120/200/21
f 120/200/21 119/199/21 121/201/22 122/202/22
f 122/202/22 121/201/22 123/203/4 124/204/4
f 124/204/4 123/203/4 125/205/23 126/206/23
f 126/206/23 125/205/23 127/207/24 128/208/24
f 128/208/24 127/207/24 110/190/17 109/189/17
f 129/209/25 90/170/25 89/169/26 130/210/26
f 130/210/26 89/169/26 93/173/27 131/211/27
f 131/211/27 93/173/27 95/175/28 132/212/28
f 132/212/28 95/175/28 97/177/29 133/213/29
f 133/213/29 97/177/29 99/179/30 134/214/30
f 134/214/30 99/179/30 101/181/31 135/215/31
f 135/215/31 101/181/31 103/183/32 136/216/32
f 136/216/32 103/183/32 105/185/33 137/217/33
f 137/217/33 105/185/33 107/187/34 138/218/34
f 138/218/34 107/187/34 90/170/25 129/209/25
f 129/209/35 130/210/36 139/39/36 140/48/35
f 141/40/37 139/39/36 130/210/36 131/211/37
f 142/41/38 141/40/37 131/211/37 132/212/38
f 143/42/39 142/41/38 132/212/38 133/213/39
f 144/43/40 143/42/39 133/213/39 134/214/40
f 145/44/41 144/43/40 134/214/40 135/215/41
f 146/45/42 145/44/41 135/215/41 136/216/42
f 147/46/43 146/45/42 136/216/42 137/217/43
f 148/47/44 147/46/43 137/217/43 138/218/44
f 140/48/35 148/47/44 138/218/44 129/209/35
f 128/208/45 109/189/46 91/171/46 108/188/45
f 109/189/46 112/192/47 92/172/47 91/171/46
f 112/192/47 114/194/48 94/174/48 92/172/47
f 114/194/48 116/196/49 96/176/49 94/174/48
f 116/196/49 118/198/50 98/178/50 96/176/49
f 118/198/50 120/200/51 100/180/51 98/178/50
f 120/200/51 122/202/52 102/182/52 100/180/51
f 122/202/52 124/204/53 104/184/53 102/182/52
f 124/204/53 126/206/54 106/186/54 104/184/53
f 126/206/54 128/208/45 108/188/45 106/186/54
f 149/219/2 111/220/2 110/221/2 150/222/2
f 151/223/2 113/224/2 111/225/2 149/226/2
f 152/227/2 115/228/2 113/229/2 151/230/2
f 153/231/2 117/232/2 115/233/2 152/234/2
f 154/235/2 119/236/2 117/237/2 153/238/2
f 155/239/2 121/240/2 119/241/2 154/242/2
f 156/243/2 123/244/2 121/245/2 155/246/2
f 157/247/2 125/248/2 123/249/2 156/250/2
f 158/251/2 127/252/2 125/253/2 157/254/2
f 150/255/2 110/256/2 127/257/2 158/258/2
f 159/259/17 160/38/18 149/260/18 150/261/17
f 160/262/18 161/37/3 151/263/3 149/264/18
f 161/265/3 162/36/19 152/266/19 151/267/3
f 162/268/19 163/35/20 153/269/20 152/270/19
f 163/271/20 164/34/21 154/272/21 153/273/20
f 164/274/21 165/33/22 155/275/22 154/276/21
f 165/277/22 166/32/4 156/278/4 155/279/22
f 166/280/4 167/31/23 157/281/23 156/282/4
f 167/283/23 168/30/24 158/284/24 157/285/23
f 168/286/24 159/29/17 150/287/17 158/288/24
